<svg width="32" height="32" viewBox="0 0 32 32" fill="none" xmlns="http://www.w3.org/2000/svg">
<g filter="url(#filter0_i_135_41235)">
<g clip-path="url(#clip0_135_41235)">
<rect width="32" height="32" fill="#F6FAFF"/>
<path fill-rule="evenodd" clip-rule="evenodd" d="M16.1909 10.0796C14.9358 10.1299 13.8264 11.024 13.5115 12.2393C13.4261 12.5696 13.3973 13.0681 13.4456 13.3875C13.5445 14.039 13.8293 14.5993 14.2939 15.0553C15.2654 16.0099 16.7912 16.1523 17.9278 15.3945C19.1528 14.5782 19.5742 12.9692 18.9054 11.6611C18.652 11.1651 18.2614 10.7525 17.7802 10.4721C17.2989 10.1917 16.7473 10.0555 16.1909 10.0796ZM16.7992 11.0422C17.1586 11.1369 17.4757 11.3171 17.7218 11.5667C17.9115 11.7593 18.0018 11.8851 18.1115 12.1107C18.3317 12.5528 18.3755 13.0621 18.2341 13.5353C18.1414 13.8579 17.9684 14.1517 17.7311 14.3892C17.4938 14.6266 17.2002 14.7999 16.8776 14.8928C16.404 15.0346 15.8942 14.9909 15.4517 14.7705C14.9166 14.5097 14.5362 14.0422 14.3835 13.4582C14.3256 13.2364 14.3131 12.8592 14.3563 12.63C14.5096 11.8166 15.1086 11.2006 15.9189 11.0243C16.1483 10.974 16.5733 10.983 16.7992 11.0422ZM15.7301 17.0678C14.0674 17.1632 12.723 17.6838 11.7794 18.598C11.4309 18.9356 11.1029 19.3737 10.9099 19.7593C10.6664 20.246 10.6862 20.7398 10.9662 21.1673C11.1912 21.5103 11.5477 21.7548 11.9861 21.8662C12.1256 21.9014 12.2632 21.9027 16.3253 21.9027H20.5205L20.6837 21.8582C21.2802 21.6953 21.724 21.2815 21.8562 20.7651C21.9013 20.5878 21.9051 20.2854 21.8645 20.1123C21.7531 19.64 21.2325 18.9001 20.6757 18.4236C20.4462 18.2272 20.0184 17.9334 19.7621 17.7964C19.0146 17.3974 18.0616 17.1484 16.9973 17.0745C16.7442 17.0569 15.9906 17.0528 15.7301 17.0678ZM16.8366 17.9766C17.8626 18.0352 18.6987 18.2515 19.4027 18.6406C20.0302 18.9875 20.5317 19.4768 20.8677 20.0704C20.9602 20.2332 20.9778 20.2803 20.9861 20.3855C20.9947 20.4927 20.9893 20.5235 20.9448 20.614C20.8856 20.735 20.7832 20.8345 20.6462 20.9036C20.4242 21.0163 20.6875 21.0099 16.3259 21.0095C11.9493 21.0092 12.1938 21.0153 11.9813 20.8998C11.8667 20.8374 11.7464 20.7206 11.6971 20.6239C11.6091 20.4518 11.6338 20.2998 11.7925 20.0342C12.404 19.0115 13.4162 18.3603 14.8085 18.0937C15.4181 17.9769 16.1262 17.936 16.8366 17.9766Z" fill="#2388FF"/>
</g>
</g>
<defs>
<filter id="filter0_i_135_41235" x="0" y="-2" width="32" height="34" filterUnits="userSpaceOnUse" color-interpolation-filters="sRGB">
<feFlood flood-opacity="0" result="BackgroundImageFix"/>
<feBlend mode="normal" in="SourceGraphic" in2="BackgroundImageFix" result="shape"/>
<feColorMatrix in="SourceAlpha" type="matrix" values="0 0 0 0 0 0 0 0 0 0 0 0 0 0 0 0 0 0 127 0" result="hardAlpha"/>
<feOffset dy="-2"/>
<feGaussianBlur stdDeviation="2"/>
<feComposite in2="hardAlpha" operator="arithmetic" k2="-1" k3="1"/>
<feColorMatrix type="matrix" values="0 0 0 0 0.137255 0 0 0 0 0.533333 0 0 0 0 1 0 0 0 0.08 0"/>
<feBlend mode="normal" in2="shape" result="effect1_innerShadow_135_41235"/>
</filter>
<clipPath id="clip0_135_41235">
<path d="M0 16C0 7.16344 7.16344 0 16 0V0C24.8366 0 32 7.16344 32 16V16C32 24.8366 24.8366 32 16 32V32C7.16344 32 0 24.8366 0 16V16Z" fill="white"/>
</clipPath>
</defs>
</svg>
