<svg width="30" height="30" viewBox="0 0 30 30" fill="none" xmlns="http://www.w3.org/2000/svg">
<g filter="url(#filter0_ddii_135_42893)">
<path d="M22.6902 5.30998C22.3313 4.95115 21.8088 4.82703 21.3289 4.9814L7.84904 9.31441C7.33688 9.47922 6.98223 9.91315 6.92382 10.4483C6.8654 10.9823 7.11888 11.483 7.58305 11.7532L12.3562 14.5372L16.4796 10.4128C16.7852 10.1072 17.2807 10.1072 17.5863 10.4128C17.8919 10.7184 17.8919 11.2139 17.5863 11.5195L13.4619 15.6439L16.2459 20.4171C16.4911 20.8364 16.924 21.0836 17.4006 21.0836C17.4507 21.0836 17.5018 21.0805 17.5529 21.0753C18.087 21.0169 18.522 20.6622 18.6857 20.1511L23.0198 6.67226C23.1742 6.18931 23.048 5.66776 22.6902 5.30998Z" fill="url(#paint0_linear_135_42893)"/>
<path d="M21.4055 5.21939L21.4054 5.21941L7.92562 9.55239C7.9256 9.5524 7.92557 9.55241 7.92555 9.55242C7.50711 9.6871 7.22003 10.0386 7.17234 10.4754L7.17234 10.4754C7.12469 10.911 7.3298 11.3165 7.70881 11.5371L7.70901 11.5372L12.3157 14.2241L16.3028 10.236L16.3028 10.236C16.7061 9.83276 17.3598 9.83276 17.7631 10.236C18.1664 10.6393 18.1664 11.293 17.7631 11.6963L13.775 15.6844L16.4618 20.2909L21.4055 5.21939ZM21.4055 5.21939C21.7965 5.09358 22.2212 5.19456 22.5134 5.48675C22.8048 5.77813 22.9076 6.20191 22.7817 6.59587C22.7817 6.59596 22.7817 6.59605 22.7817 6.59614L18.4477 20.0746L18.4477 20.0748M21.4055 5.21939L18.4477 20.0748M18.4477 20.0748C18.3142 20.4914 17.9624 20.7787 17.5267 20.8267C17.4824 20.8312 17.4402 20.8336 17.4006 20.8336C17.0134 20.8336 16.6625 20.6341 16.4619 20.2911L18.4477 20.0748Z" stroke="url(#paint1_linear_135_42893)" stroke-width="0.5"/>
</g>
<defs>
<filter id="filter0_ddii_135_42893" x="0.915528" y="0.91626" width="28.1689" height="28.1675" filterUnits="userSpaceOnUse" color-interpolation-filters="sRGB">
<feFlood flood-opacity="0" result="BackgroundImageFix"/>
<feColorMatrix in="SourceAlpha" type="matrix" values="0 0 0 0 0 0 0 0 0 0 0 0 0 0 0 0 0 0 127 0" result="hardAlpha"/>
<feOffset dy="1"/>
<feGaussianBlur stdDeviation="1"/>
<feComposite in2="hardAlpha" operator="out"/>
<feColorMatrix type="matrix" values="0 0 0 0 0.0134875 0 0 0 0 0.0641196 0 0 0 0 0.147477 0 0 0 0.26 0"/>
<feBlend mode="normal" in2="BackgroundImageFix" result="effect1_dropShadow_135_42893"/>
<feColorMatrix in="SourceAlpha" type="matrix" values="0 0 0 0 0 0 0 0 0 0 0 0 0 0 0 0 0 0 127 0" result="hardAlpha"/>
<feOffset dy="2"/>
<feGaussianBlur stdDeviation="3"/>
<feComposite in2="hardAlpha" operator="out"/>
<feColorMatrix type="matrix" values="0 0 0 0 0.0559254 0 0 0 0 0.163133 0 0 0 0 0.339632 0 0 0 0.1 0"/>
<feBlend mode="normal" in2="effect1_dropShadow_135_42893" result="effect2_dropShadow_135_42893"/>
<feBlend mode="normal" in="SourceGraphic" in2="effect2_dropShadow_135_42893" result="shape"/>
<feColorMatrix in="SourceAlpha" type="matrix" values="0 0 0 0 0 0 0 0 0 0 0 0 0 0 0 0 0 0 127 0" result="hardAlpha"/>
<feOffset dy="1"/>
<feGaussianBlur stdDeviation="0.5"/>
<feComposite in2="hardAlpha" operator="arithmetic" k2="-1" k3="1"/>
<feColorMatrix type="matrix" values="0 0 0 0 1 0 0 0 0 1 0 0 0 0 1 0 0 0 0.58 0"/>
<feBlend mode="normal" in2="shape" result="effect3_innerShadow_135_42893"/>
<feColorMatrix in="SourceAlpha" type="matrix" values="0 0 0 0 0 0 0 0 0 0 0 0 0 0 0 0 0 0 127 0" result="hardAlpha"/>
<feOffset dy="-0.5"/>
<feGaussianBlur stdDeviation="0.1"/>
<feComposite in2="hardAlpha" operator="arithmetic" k2="-1" k3="1"/>
<feColorMatrix type="matrix" values="0 0 0 0 0.151139 0 0 0 0 0.471907 0 0 0 0 1 0 0 0 0.13 0"/>
<feBlend mode="normal" in2="effect3_innerShadow_135_42893" result="effect4_innerShadow_135_42893"/>
</filter>
<linearGradient id="paint0_linear_135_42893" x1="15" y1="4.91626" x2="15" y2="21.0836" gradientUnits="userSpaceOnUse">
<stop stop-color="#E2EDFF"/>
<stop offset="1" stop-color="white"/>
</linearGradient>
<linearGradient id="paint1_linear_135_42893" x1="15" y1="4.91626" x2="15" y2="21.0836" gradientUnits="userSpaceOnUse">
<stop stop-color="#EBF3FC"/>
<stop offset="1" stop-color="#D6E3F8"/>
</linearGradient>
</defs>
</svg>
