<svg width="12" height="12" viewBox="0 0 12 12" fill="none" xmlns="http://www.w3.org/2000/svg">
<path d="M11.1268 0.873319C10.8876 0.634103 10.5392 0.551351 10.2193 0.654269L1.23269 3.54294C0.891255 3.65281 0.654821 3.9421 0.615878 4.29884C0.576936 4.65488 0.745917 4.98867 1.05537 5.16878L4.2375 7.02479L6.9864 4.27519C7.19015 4.07144 7.52046 4.07144 7.72421 4.27519C7.92796 4.47894 7.92796 4.80926 7.72421 5.01301L4.97462 7.7626L6.83063 10.9447C6.99405 11.2243 7.28263 11.3891 7.60043 11.3891C7.63381 11.3891 7.66788 11.387 7.70196 11.3835C8.058 11.3446 8.34798 11.1081 8.45716 10.7674L11.3465 1.78151C11.4494 1.45954 11.3653 1.11184 11.1268 0.873319Z" fill="white"/>
</svg>
