<svg width="16" height="18" viewBox="0 0 16 18" fill="none" xmlns="http://www.w3.org/2000/svg">
<path d="M0.999023 4.88834H15.0011M5.04758 4.88177V4.50454C5.04758 3.7308 5.35494 2.98875 5.90206 2.44164C6.44917 1.89452 7.19122 1.58716 7.96496 1.58716C8.73869 1.58716 9.48074 1.89452 10.0279 2.44164C10.575 2.98875 10.8823 3.7308 10.8823 4.50454V4.88177M11.7108 16.4128H4.29793C3.86103 16.4128 3.44203 16.2392 3.1331 15.9303C2.82417 15.6214 2.65062 15.2024 2.65062 14.7655V4.88164H13.3581V14.7655C13.3581 15.2024 13.1846 15.6214 12.8756 15.9303C12.5667 16.2392 12.1477 16.4128 11.7108 16.4128Z" stroke="#666F8D" stroke-width="1.3" stroke-linecap="round" stroke-linejoin="round"/>
</svg>
