<svg width="11" height="12" viewBox="0 0 11 12" fill="none" xmlns="http://www.w3.org/2000/svg">
<path d="M8.61662 7.55704C8.92483 7.55704 9.22612 7.64843 9.48238 7.81966C9.73865 7.9909 9.93838 8.23428 10.0563 8.51902C10.1743 8.80377 10.2051 9.1171 10.145 9.41939C10.0849 9.72167 9.93646 9.99934 9.71853 10.2173C9.50059 10.4352 9.22292 10.5836 8.92063 10.6438C8.61835 10.7039 8.30502 10.673 8.02027 10.5551C7.73552 10.4371 7.49214 10.2374 7.32091 9.98114C7.14968 9.72487 7.05829 9.42358 7.05829 9.11537V2.88329C7.05829 2.57508 7.14968 2.27379 7.32091 2.01752C7.49214 1.76125 7.73552 1.56152 8.02027 1.44357C8.30502 1.32563 8.61835 1.29477 8.92063 1.35489C9.22292 1.41502 9.50059 1.56344 9.71853 1.78138C9.93646 1.99931 10.0849 2.27698 10.145 2.57927C10.2051 2.88156 10.1743 3.19489 10.0563 3.47963C9.93838 3.76438 9.73865 4.00776 9.48238 4.17899C9.22612 4.35022 8.92483 4.44162 8.61662 4.44162H2.38329C2.07508 4.44162 1.77379 4.35022 1.51752 4.17899C1.26125 4.00776 1.06152 3.76438 0.943573 3.47963C0.825626 3.19489 0.794766 2.88156 0.854895 2.57927C0.915023 2.27698 1.06344 1.99931 1.28138 1.78138C1.49931 1.56344 1.77698 1.41502 2.07927 1.35489C2.38156 1.29477 2.69489 1.32563 2.97963 1.44357C3.26438 1.56152 3.50776 1.76125 3.67899 2.01752C3.85022 2.27379 3.94162 2.57508 3.94162 2.88329V9.11662C3.94162 9.42483 3.85022 9.72612 3.67899 9.98238C3.50776 10.2386 3.26438 10.4384 2.97963 10.5563C2.69489 10.6743 2.38156 10.7051 2.07927 10.645C1.77698 10.5849 1.49931 10.4365 1.28138 10.2185C1.06344 10.0006 0.915023 9.72292 0.854895 9.42063C0.794766 9.11835 0.825626 8.80502 0.943573 8.52027C1.06152 8.23552 1.26125 7.99214 1.51752 7.82091C1.77379 7.64968 2.07508 7.55829 2.38329 7.55829L8.61662 7.55704Z" stroke="#19213D" stroke-width="1.2" stroke-linecap="round" stroke-linejoin="round"/>
</svg>
