<svg width="16" height="16" viewBox="0 0 16 16" fill="none" xmlns="http://www.w3.org/2000/svg">
<path d="M1.32666 5.77529H14.6738M6.51626 9.48283H9.48229M13.1908 1.32642H2.80968C2.41636 1.32642 2.03915 1.48266 1.76103 1.76078C1.48291 2.0389 1.32666 2.41611 1.32666 2.80943V13.1906C1.32666 13.5839 1.48291 13.9611 1.76103 14.2392C2.03915 14.5173 2.41636 14.6736 2.80968 14.6736H13.1908C13.5841 14.6736 13.9613 14.5173 14.2395 14.2392C14.5176 13.9611 14.6738 13.5839 14.6738 13.1906V2.80943C14.6738 2.41611 14.5176 2.0389 14.2395 1.76078C13.9613 1.48266 13.5841 1.32642 13.1908 1.32642Z" stroke="#666F8D" stroke-width="1.3" stroke-linecap="round" stroke-linejoin="round"/>
</svg>
