<svg width="13" height="12" viewBox="0 0 13 12" fill="none" xmlns="http://www.w3.org/2000/svg">
<path d="M1.6499 8.8137L3.58171 6.35634C4.12949 5.6595 5.17737 5.63671 5.75495 6.30907L7.45335 8.28611M5.98666 6.57884C6.71628 5.65078 7.73283 4.33593 7.79903 4.25038C7.80135 4.24732 7.8036 4.24443 7.80599 4.2414C8.35482 3.54907 9.3993 3.52785 9.97564 4.1987L11.674 6.17577M3.0568 11.0999H10.443C11.22 11.0999 11.8499 10.47 11.8499 9.69301V2.3068C11.8499 1.52979 11.22 0.899902 10.443 0.899902H3.0568C2.27979 0.899902 1.6499 1.52979 1.6499 2.3068V9.69301C1.6499 10.47 2.27979 11.0999 3.0568 11.0999Z" stroke="#19213D" stroke-width="1.2" stroke-linecap="round" stroke-linejoin="round"/>
</svg>
