<svg width="16" height="18" viewBox="0 0 16 18" fill="none" xmlns="http://www.w3.org/2000/svg">
<path d="M5.98263 3.58032L6.47713 2.3078C6.56106 2.09316 6.70804 1.90897 6.89871 1.7795C7.08937 1.65004 7.31479 1.58136 7.54526 1.58253H8.47162C8.70124 1.58236 8.92557 1.6515 9.11526 1.7809C9.30496 1.9103 9.45117 2.09394 9.53479 2.3078L10.0293 3.58032L11.6776 4.53635L13.0293 4.33196C13.2553 4.2986 13.4861 4.33387 13.6918 4.4332C13.8975 4.53254 14.0687 4.69136 14.1831 4.88909L14.6479 5.69348C14.7624 5.89229 14.8143 6.12094 14.7969 6.34967C14.7796 6.5784 14.6938 6.7966 14.5507 6.97588L13.6985 8.044V9.95607L14.5507 11.0242C14.6938 11.2035 14.7796 11.4217 14.7969 11.6504C14.8143 11.8791 14.7624 12.1078 14.6479 12.3066L14.1831 13.111C14.0687 13.3087 13.8975 13.4675 13.6918 13.5669C13.4861 13.6662 13.2553 13.7015 13.0293 13.6681L11.6776 13.4637L10.0293 14.4198L9.53479 15.6923C9.45117 15.9061 9.30496 16.0898 9.11526 16.2192C8.92557 16.3486 8.70124 16.4177 8.47162 16.4175H7.54526C7.31563 16.4177 7.0913 16.3486 6.90161 16.2192C6.71192 16.0898 6.5657 15.9061 6.48208 15.6923L5.98758 14.4198L4.33925 13.4637L2.98761 13.6681C2.76161 13.7015 2.5308 13.6662 2.32507 13.5669C2.11935 13.4675 1.94819 13.3087 1.83378 13.111L1.35246 12.3066C1.23804 12.1078 1.18612 11.8791 1.20347 11.6504C1.22081 11.4217 1.30662 11.2035 1.44972 11.0242L2.3019 9.95607V8.044L1.44972 6.97588C1.30662 6.7966 1.22081 6.5784 1.20347 6.34967C1.18612 6.12094 1.23804 5.89229 1.35246 5.69348L1.81729 4.88909C1.93171 4.69136 2.10287 4.53254 2.30859 4.4332C2.51431 4.33387 2.74513 4.2986 2.97113 4.33196L4.32276 4.53635L5.98263 3.58032ZM5.94802 9.00004C5.94802 9.54649 6.1651 10.0706 6.5515 10.457C6.9379 10.8434 7.46198 11.0605 8.00844 11.0605C8.55489 11.0605 9.07897 10.8434 9.46537 10.457C9.85178 10.0706 10.0689 9.54649 10.0689 9.00004C10.0689 8.45358 9.85178 7.92951 9.46537 7.5431C9.07897 7.1567 8.55489 6.93962 8.00844 6.93962C7.46198 6.93962 6.9379 7.1567 6.5515 7.5431C6.1651 7.92951 5.94802 8.45358 5.94802 9.00004Z" stroke="#666F8D" stroke-width="1.3" stroke-linecap="round"/>
</svg>
