<svg width="16" height="16" viewBox="0 0 16 16" fill="none" xmlns="http://www.w3.org/2000/svg">
<path d="M5.85854 2.91908L6.32213 1.72609C6.40081 1.52486 6.5386 1.35219 6.71735 1.23081C6.8961 1.10944 7.10743 1.04506 7.32349 1.04616H8.19196C8.40723 1.046 8.61754 1.11081 8.79538 1.23213C8.97321 1.35344 9.11029 1.5256 9.18869 1.72609L9.65228 2.91908L11.1976 3.81536L12.4647 3.62374C12.6766 3.59246 12.893 3.62553 13.0859 3.71866C13.2787 3.81179 13.4392 3.96068 13.5465 4.14605L13.9822 4.90017C14.0895 5.08655 14.1382 5.30091 14.1219 5.51534C14.1057 5.72978 14.0252 5.93435 13.8911 6.10242L13.0921 7.10378V8.89635L13.8911 9.89771C14.0252 10.0658 14.1057 10.2704 14.1219 10.4848C14.1382 10.6992 14.0895 10.9136 13.9822 11.1L13.5465 11.8541C13.4392 12.0395 13.2787 12.1883 13.0859 12.2815C12.893 12.3746 12.6766 12.4077 12.4647 12.3764L11.1976 12.1848L9.65228 13.0811L9.18869 14.274C9.11029 14.4745 8.97321 14.6467 8.79538 14.768C8.61754 14.8893 8.40723 14.9541 8.19196 14.954H7.32349C7.10822 14.9541 6.89791 14.8893 6.72008 14.768C6.54224 14.6467 6.40516 14.4745 6.32677 14.274L5.86317 13.0811L4.31786 12.1848L3.0507 12.3764C2.83883 12.4077 2.62244 12.3746 2.42957 12.2815C2.23671 12.1883 2.07625 12.0395 1.96898 11.8541L1.51775 11.1C1.41048 10.9136 1.36181 10.6992 1.37807 10.4848C1.39433 10.2704 1.47477 10.0658 1.60893 9.89771L2.40785 8.89635V7.10378L1.60893 6.10242C1.47477 5.93435 1.39433 5.72978 1.37807 5.51534C1.36181 5.30091 1.41048 5.08655 1.51775 4.90017L1.95353 4.14605C2.0608 3.96068 2.22125 3.81179 2.41412 3.71866C2.60699 3.62553 2.82337 3.59246 3.03525 3.62374L4.30241 3.81536L5.85854 2.91908ZM5.82608 8.00007C5.82608 8.51237 6.0296 9.00369 6.39185 9.36594C6.7541 9.7282 7.24542 9.93171 7.75773 9.93171C8.27003 9.93171 8.76135 9.7282 9.1236 9.36594C9.48586 9.00369 9.68937 8.51237 9.68937 8.00007C9.68937 7.48776 9.48586 6.99644 9.1236 6.63419C8.76135 6.27194 8.27003 6.06842 7.75773 6.06842C7.24542 6.06842 6.7541 6.27194 6.39185 6.63419C6.0296 6.99644 5.82608 7.48776 5.82608 8.00007Z" stroke="#19213D" stroke-width="0.9" stroke-linecap="round"/>
</svg>
