<svg width="12" height="14" viewBox="0 0 12 14" fill="none" xmlns="http://www.w3.org/2000/svg">
<path d="M4.48673 2.93511L4.85761 1.98073C4.92055 1.81974 5.03078 1.6816 5.17379 1.5845C5.31679 1.4874 5.48585 1.4359 5.6587 1.43678H6.35347C6.52569 1.43665 6.69394 1.4885 6.8362 1.58555C6.97847 1.68261 7.08814 1.82034 7.15085 1.98073L7.52173 2.93511L8.75798 3.65214L9.7717 3.49884C9.9412 3.47383 10.1143 3.50028 10.2686 3.57478C10.4229 3.64928 10.5513 3.7684 10.6371 3.9167L10.9857 4.51999C11.0715 4.66909 11.1105 4.84058 11.0974 5.01213C11.0844 5.18368 11.0201 5.34733 10.9128 5.48179L10.2736 6.28288V7.71693L10.9128 8.51802C11.0201 8.65248 11.0844 8.81614 11.0974 8.98768C11.1105 9.15923 11.0715 9.33072 10.9857 9.47982L10.6371 10.0831C10.5513 10.2314 10.4229 10.3505 10.2686 10.425C10.1143 10.4995 9.9412 10.526 9.7717 10.501L8.75798 10.3477L7.52173 11.0647L7.15085 12.0191C7.08814 12.1795 6.97847 12.3172 6.8362 12.4143C6.69394 12.5113 6.52569 12.5632 6.35347 12.563H5.6587C5.48648 12.5632 5.31823 12.5113 5.17596 12.4143C5.0337 12.3172 4.92403 12.1795 4.86132 12.0191L4.49044 11.0647L3.25419 10.3477L2.24046 10.501C2.07096 10.526 1.89785 10.4995 1.74356 10.425C1.58927 10.3505 1.4609 10.2314 1.37509 10.0831L1.0141 9.47982C0.928286 9.33072 0.889347 9.15923 0.902356 8.98768C0.915365 8.81614 0.97972 8.65248 1.08704 8.51802L1.72618 7.71693V6.28288L1.08704 5.48179C0.97972 5.34733 0.915365 5.18368 0.902356 5.01213C0.889347 4.84058 0.928286 4.66909 1.0141 4.51999L1.36273 3.9167C1.44854 3.7684 1.57691 3.64928 1.7312 3.57478C1.88549 3.50028 2.0586 3.47383 2.2281 3.49884L3.24183 3.65214L4.48673 2.93511ZM4.46077 6.99991C4.46077 7.40975 4.62358 7.80281 4.91338 8.09261C5.20318 8.38241 5.59624 8.54522 6.00608 8.54522C6.41593 8.54522 6.80898 8.38241 7.09879 8.09261C7.38859 7.80281 7.5514 7.40975 7.5514 6.99991C7.5514 6.59006 7.38859 6.19701 7.09879 5.9072C6.80898 5.6174 6.41593 5.45459 6.00608 5.45459C5.59624 5.45459 5.20318 5.6174 4.91338 5.9072C4.62358 6.19701 4.46077 6.59006 4.46077 6.99991Z" stroke="#19213D" stroke-width="1.2" stroke-linecap="round"/>
</svg>
