<svg width="17" height="16" viewBox="0 0 17 16" fill="none" xmlns="http://www.w3.org/2000/svg">
<path d="M1.7002 11.7517L4.27593 8.4752C5.00631 7.54609 6.40348 7.5157 7.17359 8.41217L9.43813 11.0482M7.48254 8.77187C8.45536 7.53446 9.81077 5.78132 9.89903 5.66726C9.90212 5.66318 9.90512 5.65933 9.90831 5.65528C10.6401 4.73218 12.0327 4.70388 12.8012 5.59835L15.0657 8.23443M3.57606 14.8H13.4243C14.4604 14.8 15.3002 13.9601 15.3002 12.9241V3.07581C15.3002 2.0398 14.4604 1.19995 13.4243 1.19995H3.57606C2.54005 1.19995 1.7002 2.0398 1.7002 3.07581V12.9241C1.7002 13.9601 2.54005 14.8 3.57606 14.8Z" stroke="#666F8D" stroke-width="1.3" stroke-linecap="round" stroke-linejoin="round"/>
</svg>
