<svg width="17" height="16" viewBox="0 0 17 16" fill="none" xmlns="http://www.w3.org/2000/svg">
<path d="M4.22259 6.58531C4.97975 6.58531 5.70591 6.28452 6.24131 5.74912C6.77671 5.21373 7.0775 4.48757 7.0775 3.7304C7.0775 2.97323 6.77671 2.24707 6.24131 1.71167C5.70591 1.17627 4.97975 0.875488 4.22259 0.875488C3.46542 0.875488 2.73926 1.17627 2.20386 1.71167C1.66846 2.24707 1.36768 2.97323 1.36768 3.7304C1.36768 4.48757 1.66846 5.21373 2.20386 5.74912C2.73926 6.28452 3.46542 6.58531 4.22259 6.58531Z" stroke="#19213D" stroke-width="0.96" stroke-linecap="round" stroke-linejoin="round"/>
<path d="M12.7776 6.58533C13.5347 6.58533 14.2609 6.28454 14.7963 5.74914C15.3317 5.21375 15.6325 4.48759 15.6325 3.73042C15.6325 2.97325 15.3317 2.24709 14.7963 1.71169C14.2609 1.17629 13.5347 0.875509 12.7776 0.875509C12.0204 0.875509 11.2942 1.17629 10.7588 1.71169C10.2234 2.24709 9.92266 2.97325 9.92266 3.73042C9.92266 4.48759 10.2234 5.21375 10.7588 5.74914C11.2942 6.28454 12.0204 6.58533 12.7776 6.58533Z" stroke="#19213D" stroke-width="0.96" stroke-linecap="round" stroke-linejoin="round"/>
<path d="M4.22259 15.1245C4.5975 15.1245 4.96874 15.0507 5.31511 14.9072C5.66149 14.7637 5.97621 14.5534 6.24131 14.2883C6.50641 14.0232 6.71671 13.7085 6.86018 13.3621C7.00365 13.0158 7.0775 12.6445 7.0775 12.2696C7.0775 11.8947 7.00365 11.5235 6.86018 11.1771C6.71671 10.8307 6.50641 10.516 6.24131 10.2509C5.97621 9.98578 5.66149 9.77549 5.31511 9.63202C4.96874 9.48854 4.5975 9.4147 4.22259 9.4147C3.46542 9.4147 2.73926 9.71548 2.20386 10.2509C1.66846 10.7863 1.36768 11.5124 1.36768 12.2696C1.36768 13.0268 1.66846 13.7529 2.20386 14.2883C2.73926 14.8237 3.46542 15.1245 4.22259 15.1245Z" stroke="#19213D" stroke-width="0.96" stroke-linecap="round" stroke-linejoin="round"/>
<path d="M12.7776 15.1245C13.1525 15.1245 13.5237 15.0507 13.8701 14.9072C14.2165 14.7637 14.5312 14.5534 14.7963 14.2883C15.0614 14.0232 15.2717 13.7085 15.4152 13.3621C15.5586 13.0158 15.6325 12.6445 15.6325 12.2696C15.6325 11.8947 15.5586 11.5235 15.4152 11.1771C15.2717 10.8307 15.0614 10.516 14.7963 10.2509C14.5312 9.98578 14.2165 9.77549 13.8701 9.63202C13.5237 9.48854 13.1525 9.4147 12.7776 9.4147C12.0204 9.4147 11.2942 9.71548 10.7588 10.2509C10.2234 10.7863 9.92266 11.5124 9.92266 12.2696C9.92266 13.0268 10.2234 13.7529 10.7588 14.2883C11.2942 14.8237 12.0204 15.1245 12.7776 15.1245Z" stroke="#19213D" stroke-width="0.96" stroke-linecap="round" stroke-linejoin="round"/>
</svg>
