<svg width="56" height="56" viewBox="0 0 56 56" fill="none" xmlns="http://www.w3.org/2000/svg">
<path d="M0 28C0 12.536 12.536 0 28 0C43.464 0 56 12.536 56 28C56 43.464 43.464 56 28 56C12.536 56 0 43.464 0 28Z" fill="black"/>
<path d="M42.9643 24.8288C43.356 23.6525 43.4919 22.4061 43.363 21.1731C43.234 19.94 42.8431 18.7487 42.2164 17.679C41.2873 16.0609 39.8681 14.7798 38.1636 14.0206C36.4592 13.2614 34.5576 13.0634 32.7332 13.455C31.9105 12.5277 30.8991 11.7868 29.7669 11.2819C28.6346 10.777 27.4076 10.5198 26.1679 10.5275C24.3029 10.523 22.4845 11.1109 20.975 12.2063C19.4656 13.3018 18.3429 14.8482 17.7689 16.6228C16.5537 16.8714 15.4056 17.3768 14.4016 18.1052C13.3975 18.8335 12.5607 19.7679 11.9471 20.8459C11.0108 22.4596 10.6112 24.3289 10.8059 26.1843C11.0006 28.0397 11.7795 29.7854 13.0304 31.1695C12.6386 32.3459 12.5027 33.5925 12.6316 34.8256C12.7606 36.0588 13.1515 37.2503 13.7782 38.3202C14.7074 39.9382 16.1266 41.2192 17.8311 41.9783C19.5355 42.7375 21.4371 42.9356 23.2614 42.5441C24.0844 43.4714 25.0959 44.2121 26.2283 44.7169C27.3607 45.2216 28.5878 45.4786 29.8276 45.4708C31.6935 45.4757 33.5129 44.8877 35.0229 43.7915C36.533 42.6953 37.6558 41.1477 38.2292 39.372C39.4443 39.1232 40.5922 38.6178 41.596 37.8895C42.5999 37.1611 43.4366 36.2268 44.0502 35.1489C44.9854 33.5354 45.3842 31.6666 45.189 29.8119C44.9939 27.9571 44.2148 26.2123 42.9643 24.8288ZM29.8302 43.1889C28.2981 43.1911 26.8141 42.6546 25.6376 41.6731C25.6909 41.6443 25.7844 41.5936 25.8447 41.5561L32.8022 37.5374C32.9771 37.4381 33.1223 37.2939 33.2229 37.1198C33.3235 36.9456 33.3758 36.7478 33.3745 36.5467V26.7368L36.3151 28.4351C36.3306 28.4427 36.3439 28.454 36.354 28.468C36.3641 28.4821 36.3705 28.4983 36.3728 28.5155V36.6393C36.3707 38.3746 35.6808 40.0383 34.4542 41.2658C33.2277 42.4933 31.5646 43.1845 29.8293 43.188L29.8302 43.1889ZM15.7596 37.1783C14.9924 35.8525 14.7159 34.2992 14.9785 32.7901C15.031 32.8216 15.1201 32.8766 15.1856 32.9133L22.1431 36.932C22.3165 37.0332 22.5137 37.0866 22.7145 37.0866C22.9153 37.0866 23.1125 37.0332 23.2858 36.932L31.781 32.0274V35.4241C31.782 35.4414 31.7787 35.4587 31.7713 35.4744C31.764 35.4901 31.7529 35.5037 31.739 35.5141L24.7055 39.5756C23.2009 40.4421 21.4139 40.6764 19.7368 40.227C18.0596 39.7776 16.6293 38.6811 15.7596 37.1783ZM13.9293 21.9895C14.6935 20.6617 15.9006 19.6451 17.3391 19.1179C17.3391 19.1773 17.3356 19.2839 17.3356 19.3572V27.3955C17.3344 27.5962 17.3868 27.7936 17.4872 27.9674C17.5876 28.1412 17.7325 28.2851 17.9069 28.3844L26.4012 33.2889L23.4606 34.9873C23.446 34.9969 23.4293 35.0028 23.4119 35.0043C23.3945 35.0058 23.377 35.003 23.361 34.996L16.3257 30.9319C14.8237 30.0621 13.728 28.6321 13.2788 26.9556C12.8295 25.2791 13.0635 23.4937 13.9293 21.9895ZM38.092 27.613L29.5969 22.7076L32.5384 21.0101C32.5529 21.0007 32.5695 20.995 32.5867 20.9935C32.6039 20.992 32.6212 20.9947 32.6371 21.0014L39.6716 25.062C40.7492 25.6846 41.6272 26.6012 42.2028 27.7047C42.7783 28.8081 43.0276 30.0527 42.9215 31.2927C42.8153 32.5327 42.3581 33.7168 41.6034 34.7064C40.8487 35.696 39.8277 36.4501 38.6599 36.8804V28.6019C38.6615 28.4016 38.6097 28.2043 38.5099 28.0306C38.4101 27.8568 38.2659 27.7127 38.092 27.613ZM41.0187 23.2073C40.9671 23.175 40.8772 23.1208 40.8125 23.0841L33.8541 19.0655C33.6807 18.9643 33.4835 18.911 33.2827 18.911C33.082 18.911 32.8848 18.9643 32.7114 19.0655L24.2171 23.97V20.5733C24.2161 20.556 24.2195 20.5388 24.2268 20.5231C24.2341 20.5074 24.2452 20.4937 24.2591 20.4833L31.2917 16.4254C32.3694 15.8037 33.6018 15.5018 34.8447 15.555C36.0876 15.6083 37.2897 16.0144 38.3102 16.7259C39.3308 17.4374 40.1276 18.4248 40.6074 19.5726C41.0872 20.7204 41.2293 21.9812 41.0187 23.2073ZM22.6175 29.2607L19.676 27.5623C19.6607 27.5546 19.6475 27.5432 19.6376 27.5292C19.6277 27.5152 19.6214 27.499 19.6192 27.482V19.3581C19.6203 18.1141 19.9756 16.896 20.6436 15.8466C21.3117 14.7971 22.2648 13.9596 23.3915 13.432C24.5181 12.9045 25.7717 12.7087 27.0056 12.8677C28.2395 13.0266 29.4025 13.5337 30.3587 14.3295C30.2892 14.3672 30.2205 14.4062 30.1525 14.4466L23.1941 18.4653C23.0197 18.5645 22.8748 18.7085 22.7744 18.8823C22.674 19.0561 22.6216 19.2535 22.6228 19.4542L22.6175 29.2607ZM24.2154 25.816L27.9982 23.631L31.7827 25.8151V30.1832L27.9991 32.3673L24.2154 30.1832V25.816Z" fill="white"/>
</svg>
